<?xml version="1.0" encoding="UTF-8" standalone="no"?>
<svg width="268px" height="268px" viewBox="0 0 268 268" version="1.1" xmlns="http://www.w3.org/2000/svg" xmlns:xlink="http://www.w3.org/1999/xlink" xmlns:sketch="http://www.bohemiancoding.com/sketch/ns">
    <!-- Generator: Sketch 3.5.2 (25235) - http://www.bohemiancoding.com/sketch -->
    <title>Group</title>
    <desc>Created with Sketch.</desc>
    <defs></defs>
    <g id="Page-1" stroke="none" stroke-width="1" fill="none" fill-rule="evenodd" sketch:type="MSPage">
        <g id="Group" sketch:type="MSLayerGroup" fill="#4990E2">
            <path d="M133.999,254 C67.832,254 14,200.169 14,134.001 C14,67.832 67.832,14 133.999,14 C200.168,14 254,67.832 254,134.001 C254,200.169 200.168,254 133.999,254 L133.999,254 Z M133.999,0 C59.993,0 0,59.995 0,134.001 C0,208.008 59.993,268 133.999,268 C208.005,268 268,208.008 268,134.001 C268,59.995 208.005,0 133.999,0 L133.999,0 Z" id="Fill-3" sketch:type="MSShapeGroup"></path>
            <path d="M197.11,138.908 C193.957,129.051 188.305,120.232 181.576,112.44 C179.469,109.998 177.254,107.648 174.965,105.375 C172.568,102.995 169.975,100.811 167.629,98.383 C163.952,94.58 161.026,90.067 159.289,85.059 C156.532,77.118 156.928,68.463 159.252,60.47 C160.359,56.661 161.837,52.804 163.906,49.4 C162.633,49.84 161.375,50.325 160.121,50.816 C156.576,52.205 153.077,53.71 149.616,55.295 C144.51,57.636 139.489,60.164 134.569,62.875 C128.6,66.165 122.778,69.726 117.164,73.592 C111.01,77.831 105.101,82.438 99.584,87.482 C93.889,92.69 88.606,98.372 84.015,104.581 C79.383,110.845 75.464,117.658 72.636,124.926 C69.7,132.469 67.98,140.462 67.633,148.551 C67.21,158.392 68.871,168.257 72.65,177.362 C76.356,186.289 82.021,194.37 89.127,200.919 C96.261,207.494 104.814,212.492 114.057,215.446 C123.94,218.604 134.464,219.323 144.727,217.906 C154.854,216.504 164.691,212.964 173.27,207.38 C181.246,202.189 188.106,195.239 192.901,186.997 C197.604,178.917 204.669,162.52 197.11,138.908" id="Fill-14" sketch:type="MSShapeGroup"></path>
        </g>
    </g>
</svg>